HIERARCHY
ROOT joint_0
{
	OFFSET 0.000000 0.000000 0.000000
	CHANNELS 6 Xposition Yposition Zposition Zrotation Yrotation Xrotation 
	JOINT joint_1
	{
		OFFSET 0.587158 0.057678 95.682007
		CHANNELS 3 Zrotation Yrotation Xrotation
		JOINT joint_2
		{
			OFFSET -7.116699 -0.219910 87.157959
			CHANNELS 3 Zrotation Yrotation Xrotation
			JOINT joint_3
			{
				OFFSET -5.892822 -0.290222 87.151001
				CHANNELS 3 Zrotation Yrotation Xrotation
				JOINT joint_4
				{
					OFFSET 5.544678 -0.099609 123.768066
					CHANNELS 3 Zrotation Yrotation Xrotation
					JOINT joint_5
					{
						OFFSET 41.981201 4.519775 84.257935
						CHANNELS 3 Zrotation Yrotation Xrotation
						End Site
						{
							OFFSET 0.000000 0.000000 0.000000
						}
					}
				}
				JOINT joint_6
				{
					OFFSET 3.940918 -26.976501 69.308105
					CHANNELS 3 Zrotation Yrotation Xrotation
					JOINT joint_7
					{
						OFFSET 4.776123 -152.592468 -16.842041
						CHANNELS 3 Zrotation Yrotation Xrotation
						JOINT joint_8
						{
							OFFSET 54.421875 -30.424072 -248.864014
							CHANNELS 3 Zrotation Yrotation Xrotation
							JOINT joint_9
							{
								OFFSET 42.120117 -33.387878 -236.524963
								CHANNELS 3 Zrotation Yrotation Xrotation
								End Site
								{
									OFFSET 0.000000 0.000000 0.000000
								}
							}
						}
					}
				}
				JOINT joint_10
				{
					OFFSET 2.312012 26.904114 69.425049
					CHANNELS 3 Zrotation Yrotation Xrotation
					JOINT joint_11
					{
						OFFSET 0.971436 152.197815 -20.626953
						CHANNELS 3 Zrotation Yrotation Xrotation
						JOINT joint_12
						{
							OFFSET 49.954102 28.991455 -249.970093
							CHANNELS 3 Zrotation Yrotation Xrotation
							JOINT joint_13
							{
								OFFSET 48.146973 19.598389 -236.919922
								CHANNELS 3 Zrotation Yrotation Xrotation
								End Site
								{
									OFFSET 0.000000 0.000000 0.000000
								}
							}
						}
					}
				}
			}
		}
	}
	JOINT joint_14
	{
		OFFSET 16.305664 -89.442932 -108.224976
		CHANNELS 3 Zrotation Yrotation Xrotation
		JOINT joint_15
		{
			OFFSET -22.282471 13.437134 -412.904968
			CHANNELS 3 Zrotation Yrotation Xrotation
			JOINT joint_16
			{
				OFFSET -45.426025 14.484802 -445.892029
				CHANNELS 3 Zrotation Yrotation Xrotation
				JOINT joint_17
				{
					OFFSET 173.389404 -9.944031 -76.473001
					CHANNELS 3 Zrotation Yrotation Xrotation
					End Site
					{
						OFFSET 0.000000 0.000000 0.000000
					}
				}
			}
		}
	}
	JOINT joint_18
	{
		OFFSET 13.392822 89.408875 -108.653992
		CHANNELS 3 Zrotation Yrotation Xrotation
		JOINT joint_19
		{
			OFFSET -29.032959 24.483521 -411.977966
			CHANNELS 3 Zrotation Yrotation Xrotation
			JOINT joint_20
			{
				OFFSET -30.530029 28.986328 -446.453018
				CHANNELS 3 Zrotation Yrotation Xrotation
				JOINT joint_21
				{
					OFFSET 170.330078 33.400757 -76.698997
					CHANNELS 3 Zrotation Yrotation Xrotation
					End Site
					{
						OFFSET 0.000000 0.000000 0.000000
					}
				}
			}
		}
	}
}
MOTION
Frames: 18
Frame Time: 0.016667
-1798.932495 945.289795 1058.677002 -3.146112 -2.484110 1.014987 0.136748 4.897371 -0.083180 -0.081591 -0.970526 0.027749 -0.100052 0.893537 -0.019624 -0.564362 3.877689 0.735224 0.000000 0.000000 0.000000 -2.515386 0.047343 -1.336651 0.315275 -0.185401 1.061403 0.220284 -1.932594 -0.358430 0.000000 0.000000 0.000000 0.521274 0.696214 0.874832 0.233753 0.661573 0.406344 -0.353139 -2.238429 -0.840410 0.000000 0.000000 0.000000 -0.284175 -1.240235 -10.419020 -1.036150 1.096128 0.124211 -0.949096 2.782001 -0.242462 0.000000 0.000000 0.000000 1.109223 -0.088878 0.744601 1.151629 0.325671 0.668795 1.319515 2.325356 0.134508 0.000000 0.000000 0.000000 
-1798.770142 945.225891 1058.676025 -3.167766 -2.454413 0.983760 0.146370 4.831055 -0.048483 -0.070802 -0.965575 0.021101 -0.088367 0.890248 -0.016199 -0.560425 3.880962 0.727274 0.000000 0.000000 0.000000 -2.490044 0.081930 -1.336754 0.305137 -0.147595 1.041027 0.229381 -1.947571 -0.319162 0.000000 0.000000 0.000000 0.566586 0.733981 0.780224 0.247968 0.694017 0.457485 -0.358093 -2.246412 -0.861770 0.000000 0.000000 0.000000 -0.279982 -1.234617 -10.391068 -1.032989 1.033561 0.141807 -0.941448 2.817218 -0.237199 0.000000 0.000000 0.000000 1.108032 -0.143154 0.744293 1.153111 0.393059 0.750512 1.320474 2.301337 0.139623 0.000000 0.000000 0.000000 
-1798.610107 945.164795 1058.662964 -3.185148 -2.429937 0.959224 0.153379 4.772700 -0.020339 -0.062848 -0.958660 0.012182 -0.079166 0.885167 -0.010742 -0.556657 3.877158 0.720338 0.000000 0.000000 0.000000 -2.466788 0.120543 -1.334311 0.293895 -0.105980 1.019391 0.240852 -1.964645 -0.268390 0.000000 0.000000 0.000000 0.607901 0.773843 0.690719 0.262639 0.729206 0.510204 -0.360480 -2.249333 -0.872353 0.000000 0.000000 0.000000 -0.275511 -1.226221 -10.368449 -1.029492 0.979855 0.153976 -0.934621 2.840184 -0.232996 0.000000 0.000000 0.000000 1.107629 -0.192064 0.746819 1.156495 0.460402 0.813433 1.321754 2.273342 0.145661 0.000000 0.000000 0.000000 
-1798.460693 945.099426 1058.642944 -3.199829 -2.416240 0.935988 0.158883 4.732616 0.006935 -0.057144 -0.954027 0.004194 -0.072366 0.882663 -0.005970 -0.552274 3.869421 0.712501 0.000000 0.000000 0.000000 -2.440355 0.158678 -1.328856 0.283494 -0.064583 1.000489 0.251094 -1.980219 -0.223358 0.000000 0.000000 0.000000 0.645448 0.811124 0.607429 0.276661 0.762301 0.563442 -0.359646 -2.238057 -0.872556 0.000000 0.000000 0.000000 -0.271921 -1.212334 -10.346877 -1.026848 0.938006 0.165934 -0.929124 2.858297 -0.229638 0.000000 0.000000 0.000000 1.106551 -0.233678 0.753793 1.160170 0.534264 0.864826 1.321964 2.242475 0.151783 0.000000 0.000000 0.000000 
-1798.334351 945.025391 1058.613037 -3.210920 -2.421666 0.911997 0.163517 4.723447 0.037874 -0.054014 -0.950333 -0.004768 -0.068025 0.881388 -0.000641 -0.545796 3.853936 0.701114 0.000000 0.000000 0.000000 -2.409241 0.195114 -1.321723 0.274829 -0.024438 0.986637 0.259330 -1.995903 -0.189742 0.000000 0.000000 0.000000 0.676180 0.843957 0.529194 0.289971 0.791819 0.618117 -0.355569 -2.210040 -0.863329 0.000000 0.000000 0.000000 -0.269821 -1.187873 -10.325039 -1.025801 0.913670 0.180632 -0.925446 2.875121 -0.227126 0.000000 0.000000 0.000000 1.103798 -0.263548 0.767429 1.163342 0.621882 0.905394 1.319762 2.206297 0.157863 0.000000 0.000000 0.000000 
-1798.218750 944.948059 1058.574951 -3.218810 -2.438253 0.889404 0.166477 4.733481 0.068308 -0.053424 -0.948548 -0.013674 -0.066220 0.880559 0.005256 -0.538146 3.835888 0.687581 0.000000 0.000000 0.000000 -2.374736 0.231639 -1.313231 0.267135 0.016144 0.976420 0.266184 -2.009766 -0.162416 0.000000 0.000000 0.000000 0.703203 0.874938 0.456389 0.302769 0.819969 0.673358 -0.348376 -2.168596 -0.843989 0.000000 0.000000 0.000000 -0.268530 -1.157561 -10.304509 -1.025566 0.901708 0.195218 -0.923072 2.886494 -0.225484 0.000000 0.000000 0.000000 1.100103 -0.285750 0.785389 1.166502 0.716028 0.934465 1.316178 2.167048 0.163925 0.000000 0.000000 0.000000 
-1798.088501 944.883484 1058.541016 -3.229066 -2.450302 0.869724 0.170402 4.738550 0.096032 -0.051487 -0.947762 -0.021580 -0.063179 0.881266 0.011002 -0.531620 3.825081 0.675576 0.000000 0.000000 0.000000 -2.343455 0.267310 -1.304530 0.260190 0.055525 0.969032 0.270145 -2.012469 -0.142045 0.000000 0.000000 0.000000 0.728864 0.904026 0.388222 0.314852 0.846356 0.728429 -0.338617 -2.114079 -0.817110 0.000000 0.000000 0.000000 -0.265647 -1.131434 -10.287246 -1.023700 0.890684 0.207806 -0.919594 2.888423 -0.223920 0.000000 0.000000 0.000000 1.097485 -0.306533 0.801290 1.170203 0.799807 0.958250 1.313792 2.133218 0.169466 0.000000 0.000000 0.000000 
-1797.932373 944.838013 1058.516968 -3.242812 -2.450889 0.853592 0.174856 4.728475 0.120417 -0.048044 -0.946938 -0.027175 -0.059016 0.881233 0.014109 -0.526602 3.833528 0.664744 0.000000 0.000000 0.000000 -2.313555 0.302985 -1.294120 0.253775 0.094717 0.964227 0.269154 -1.995577 -0.133116 0.000000 0.000000 0.000000 0.758964 0.931944 0.326248 0.325531 0.870844 0.780934 -0.325145 -2.041128 -0.779147 0.000000 0.000000 0.000000 -0.260351 -1.113467 -10.273545 -1.019165 0.876680 0.216187 -0.914343 2.872010 -0.222670 0.000000 0.000000 0.000000 1.095569 -0.330924 0.812779 1.173945 0.869576 0.978478 1.312643 2.107390 0.174000 0.000000 0.000000 0.000000 
-1797.762451 944.805237 1058.496948 -3.258907 -2.447287 0.840203 0.179861 4.714094 0.142484 -0.043745 -0.946640 -0.031959 -0.054093 0.881876 0.016982 -0.522370 3.848793 0.654822 0.000000 0.000000 0.000000 -2.285777 0.337782 -1.283504 0.248189 0.132800 0.962517 0.265142 -1.967456 -0.131827 0.000000 0.000000 0.000000 0.789468 0.958187 0.269264 0.335477 0.893544 0.833080 -0.309178 -1.955268 -0.734023 0.000000 0.000000 0.000000 -0.253374 -1.099345 -10.262910 -1.012894 0.863617 0.222469 -0.907895 2.846228 -0.221453 0.000000 0.000000 0.000000 1.094459 -0.353573 0.822275 1.177920 0.929091 0.993768 1.312385 2.086628 0.177945 0.000000 0.000000 0.000000 
-1797.583374 944.779541 1058.479004 -3.275523 -2.440034 0.828551 0.183667 4.694437 0.162510 -0.040327 -0.944994 -0.035919 -0.050167 0.881574 0.019006 -0.518843 3.863452 0.646398 0.000000 0.000000 0.000000 -2.257502 0.371294 -1.273321 0.242789 0.169663 0.961505 0.262591 -1.942640 -0.125158 0.000000 0.000000 0.000000 0.820355 0.986059 0.216715 0.346891 0.918025 0.890237 -0.294487 -1.876523 -0.692498 0.000000 0.000000 0.000000 -0.247158 -1.091187 -10.256821 -1.007792 0.852096 0.234131 -0.901748 2.833253 -0.219613 0.000000 0.000000 0.000000 1.094017 -0.373172 0.831085 1.181801 0.976435 1.005278 1.312778 2.069405 0.181491 0.000000 0.000000 0.000000 
-1797.393188 944.754089 1058.462036 -3.293464 -2.427846 0.818144 0.186887 4.667886 0.180702 -0.037406 -0.943416 -0.041884 -0.046476 0.880453 0.022837 -0.516804 3.873562 0.641420 0.000000 0.000000 0.000000 -2.231252 0.404818 -1.265584 0.237810 0.206450 0.963277 0.263286 -1.926301 -0.107420 0.000000 0.000000 0.000000 0.851054 1.017350 0.169667 0.360584 0.946254 0.954259 -0.282555 -1.811382 -0.659284 0.000000 0.000000 0.000000 -0.241731 -1.092945 -10.256675 -1.004096 0.844295 0.256425 -0.895384 2.843896 -0.216298 0.000000 0.000000 0.000000 1.094096 -0.385747 0.841235 1.184864 1.002571 1.011499 1.313716 2.057837 0.184178 0.000000 0.000000 0.000000 
-1797.195679 944.734497 1058.447021 -3.312438 -2.412559 0.809503 0.189027 4.637070 0.196219 -0.035213 -0.939732 -0.046533 -0.043660 0.877408 0.025765 -0.515559 3.882338 0.638194 0.000000 0.000000 0.000000 -2.204109 0.437076 -1.258252 0.233027 0.242078 0.965829 0.265393 -1.913149 -0.084468 0.000000 0.000000 0.000000 0.882339 1.050161 0.127551 0.375629 0.976114 1.022928 -0.271854 -1.753055 -0.629500 0.000000 0.000000 0.000000 -0.236574 -1.100420 -10.260745 -1.001021 0.838199 0.283498 -0.888847 2.867785 -0.212133 0.000000 0.000000 0.000000 1.094768 -0.394506 0.850819 1.187695 1.016283 1.013912 1.315235 2.050434 0.186312 0.000000 0.000000 0.000000 
-1797.005615 944.736206 1058.430054 -3.333821 -2.402588 0.801983 0.191669 4.617470 0.213682 -0.033219 -0.937127 -0.052129 -0.040889 0.875212 0.029984 -0.513816 3.885593 0.634454 0.000000 0.000000 0.000000 -2.175103 0.463805 -1.251718 0.228227 0.272283 0.964441 0.268470 -1.907144 -0.062061 0.000000 0.000000 0.000000 0.909721 1.079670 0.085675 0.390378 1.003168 1.091027 -0.260968 -1.698195 -0.597476 0.000000 0.000000 0.000000 -0.230715 -1.099881 -10.264466 -0.997599 0.826143 0.306105 -0.882194 2.894377 -0.207759 0.000000 0.000000 0.000000 1.097111 -0.402459 0.855228 1.191862 1.039076 1.021540 1.317547 2.039038 0.189579 0.000000 0.000000 0.000000 
-1796.836426 944.770752 1058.407959 -3.356884 -2.404840 0.794853 0.194604 4.619776 0.235811 -0.032108 -0.934384 -0.057443 -0.039091 0.874564 0.032853 -0.510699 3.875789 0.629146 0.000000 0.000000 0.000000 -2.140876 0.482866 -1.246106 0.223149 0.295241 0.956581 0.273685 -1.914228 -0.038578 0.000000 0.000000 0.000000 0.932190 1.103807 0.044898 0.404169 1.025422 1.156041 -0.249457 -1.648177 -0.560491 0.000000 0.000000 0.000000 -0.223966 -1.081916 -10.264114 -0.993508 0.804364 0.317394 -0.875769 2.921161 -0.203469 0.000000 0.000000 0.000000 1.101406 -0.409861 0.851260 1.197715 1.083732 1.040664 1.320398 2.020488 0.194482 0.000000 0.000000 0.000000 
-1796.676636 944.825378 1058.383057 -3.381789 -2.413241 0.788962 0.197494 4.636262 0.257985 -0.031570 -0.934711 -0.061052 -0.038072 0.874710 0.035410 -0.507218 3.858790 0.623762 0.000000 0.000000 0.000000 -2.103768 0.496150 -1.241012 0.217985 0.312632 0.944666 0.279868 -1.927632 -0.014950 0.000000 0.000000 0.000000 0.952012 1.124654 0.005650 0.417472 1.044702 1.219648 -0.237719 -1.601307 -0.521169 0.000000 0.000000 0.000000 -0.216656 -1.055125 -10.263561 -0.989277 0.776799 0.324304 -0.869431 2.950227 -0.199082 0.000000 0.000000 0.000000 1.107135 -0.415843 0.842154 1.204642 1.137578 1.064840 1.323794 1.998303 0.200337 0.000000 0.000000 0.000000 
-1796.499023 944.882019 1058.359009 -3.413355 -2.415974 0.785448 0.201924 4.643667 0.279301 -0.029174 -0.933410 -0.065555 -0.035125 0.874227 0.037658 -0.503889 3.849852 0.617927 0.000000 0.000000 0.000000 -2.067559 0.504805 -1.233184 0.213736 0.325108 0.933128 0.282745 -1.933174 -0.003344 0.000000 0.000000 0.000000 0.970971 1.141933 -0.033624 0.429979 1.060426 1.282794 -0.224905 -1.545855 -0.480009 0.000000 0.000000 0.000000 -0.206857 -1.033065 -10.267731 -0.983156 0.746515 0.335256 -0.860805 2.978149 -0.193788 0.000000 0.000000 0.000000 1.116183 -0.421089 0.834008 1.214869 1.182700 1.082215 1.330482 1.976279 0.207634 0.000000 0.000000 0.000000 
-1796.286621 944.926575 1058.336060 -3.454188 -2.407000 0.785509 0.209202 4.633327 0.296622 -0.023042 -0.933345 -0.070453 -0.028418 0.875458 0.040264 -0.501275 3.852681 0.612411 0.000000 0.000000 0.000000 -2.035611 0.509361 -1.220108 0.210820 0.332762 0.923753 0.280133 -1.923345 -0.009752 0.000000 0.000000 0.000000 0.988813 1.154821 -0.074286 0.441634 1.071776 1.347391 -0.210104 -1.472118 -0.436424 0.000000 0.000000 0.000000 -0.193548 -1.021224 -10.280874 -0.974682 0.713012 0.356876 -0.848830 3.001820 -0.187320 0.000000 0.000000 0.000000 1.129326 -0.427599 0.830053 1.229759 1.213311 1.085778 1.341687 1.954544 0.216897 0.000000 0.000000 0.000000 
-1796.058350 944.971924 1058.312988 -3.501420 -2.392968 0.787847 0.217658 4.616491 0.312305 -0.015492 -0.933705 -0.076168 -0.020170 0.876651 0.043964 -0.498566 3.861363 0.606168 0.000000 0.000000 0.000000 -2.003797 0.508917 -1.205194 0.208884 0.335246 0.914929 0.274150 -1.905424 -0.028356 0.000000 0.000000 0.000000 1.007471 1.163909 -0.115177 0.452344 1.079093 1.411065 -0.194361 -1.389490 -0.391837 0.000000 0.000000 0.000000 -0.177729 -1.013414 -10.298663 -0.964360 0.676689 0.382672 -0.834601 3.024025 -0.179980 0.000000 0.000000 0.000000 1.145505 -0.433051 0.827378 1.247704 1.235446 1.082249 1.355894 1.932723 0.227521 0.000000 0.000000 0.000000 
